<svg id="d144bcf4-e484-4a32-84e9-e63db01ce573" data-name="Layer 1" xmlns="http://www.w3.org/2000/svg" viewBox="0 0 30 22.85">
  <defs>
    <style>
      .dbfe0a31-f09a-4d55-97eb-aba94b07d8ca {
        fill: #ccc;
      }
    </style>
  </defs>
  <title>email</title>
  <path class="dbfe0a31-f09a-4d55-97eb-aba94b07d8ca" d="M27.36,0H2.64A2.64,2.64,0,0,0,0,2.64V20.21a2.64,2.64,0,0,0,2.64,2.64H27.36A2.64,2.64,0,0,0,30,20.21V2.64A2.64,2.64,0,0,0,27.36,0ZM27,1.76,15.06,13.7,3,1.76ZM1.76,19.85V3l8.47,8.39ZM3,21.09l8.47-8.47,3,2.94a.88.88,0,0,0,1.24,0l2.89-2.89L27,21.09Zm25.24-1.24-8.43-8.43L28.24,3Z"/>
</svg>
