<svg id="f7fb7212-a643-4802-8598-b00df8280e8f" data-name="Layer 1" xmlns="http://www.w3.org/2000/svg" viewBox="0 0 55.58 55.58">
  <defs>
    <style>
      .\34 d47059e-ac73-47bf-8155-27c8944d80c7 {
        fill: #ccc;
      }
    </style>
  </defs>
  <title>github</title>
  <g>
    <path class="4d47059e-ac73-47bf-8155-27c8944d80c7" d="M20,44.68q-.58.11-.51.54t.65.29q.58-.14.51-.51T20,44.68Z"/>
    <path class="4d47059e-ac73-47bf-8155-27c8944d80c7" d="M18,45c-.39,0-.58.13-.58.4s.21.45.62.4.58-.13.58-.4S18.39,44.93,18,45Z"/>
    <path class="4d47059e-ac73-47bf-8155-27c8944d80c7" d="M15.16,44.86q-.14.4.47.54t.69-.22q.11-.4-.47-.58C15.49,44.52,15.26,44.6,15.16,44.86Z"/>
    <path class="4d47059e-ac73-47bf-8155-27c8944d80c7" d="M52.52,3.06A10,10,0,0,0,45.15,0H10.42A10,10,0,0,0,3.06,3.06,10,10,0,0,0,0,10.42V45.16a10,10,0,0,0,3.06,7.36,10,10,0,0,0,7.36,3.06h8.1a9.79,9.79,0,0,0,1.19-.05,1.4,1.4,0,0,0,.8-.47,1.69,1.69,0,0,0,.4-1.21q0-.11,0-2.46t0-3.73L20,47.8a10.65,10.65,0,0,1-2,.13,15.45,15.45,0,0,1-2.51-.25,5.64,5.64,0,0,1-2.42-1.09,4.59,4.59,0,0,1-1.59-2.23l-.36-.83A9,9,0,0,0,10,41.68a4.37,4.37,0,0,0-1.57-1.38l-.25-.18a2.66,2.66,0,0,1-.47-.43,2,2,0,0,1-.33-.51q-.11-.25.18-.42a2.35,2.35,0,0,1,1-.16l.72.11a5.27,5.27,0,0,1,1.79.87,5.84,5.84,0,0,1,1.75,1.88,6.38,6.38,0,0,0,2,2.26,4.26,4.26,0,0,0,2.37.78,10.28,10.28,0,0,0,2.06-.18,7.2,7.2,0,0,0,1.63-.54,5.86,5.86,0,0,1,1.77-3.73A24.78,24.78,0,0,1,19,39.4,14.78,14.78,0,0,1,15.61,38a9.74,9.74,0,0,1-2.91-2.42,11.66,11.66,0,0,1-1.9-3.8,18.07,18.07,0,0,1-.74-5.43,10.55,10.55,0,0,1,2.86-7.45,9.73,9.73,0,0,1,.25-7.38,5.07,5.07,0,0,1,3.11.49,21.82,21.82,0,0,1,3,1.39q1,.58,1.54,1a26.12,26.12,0,0,1,13.89,0l1.37-.87a19.46,19.46,0,0,1,3.33-1.59,4.74,4.74,0,0,1,2.93-.4,9.63,9.63,0,0,1,.29,7.38,10.55,10.55,0,0,1,2.86,7.45,18.24,18.24,0,0,1-.74,5.45,11.18,11.18,0,0,1-1.92,3.8A10.12,10.12,0,0,1,39.93,38a14.76,14.76,0,0,1-3.4,1.41,24.76,24.76,0,0,1-3.71.65q1.88,1.63,1.88,5.14v8.65a2.33,2.33,0,0,0,.18,1,1,1,0,0,0,.58.52,3.21,3.21,0,0,0,.71.18,8.12,8.12,0,0,0,.89,0h8.1A10.44,10.44,0,0,0,55.58,45.15V10.42A10,10,0,0,0,52.52,3.06Z"/>
    <path class="4d47059e-ac73-47bf-8155-27c8944d80c7" d="M11,40.45q-.25.18.07.58t.58.11q.25-.18-.07-.58T11,40.45Z"/>
    <path class="4d47059e-ac73-47bf-8155-27c8944d80c7" d="M9.81,39.55q-.11.25.25.43a.31.31,0,0,0,.47-.07q.11-.25-.25-.44T9.81,39.55Z"/>
    <path class="4d47059e-ac73-47bf-8155-27c8944d80c7" d="M12.12,41.86q-.33.18,0,.65t.62.25q.33-.25,0-.69C12.54,41.77,12.34,41.69,12.12,41.86Z"/>
    <path class="4d47059e-ac73-47bf-8155-27c8944d80c7" d="M13.39,43.49c-.22.19-.17.42.14.69s.53.33.72.11.14-.42-.14-.69S13.58,43.27,13.39,43.49Z"/>
  </g>
</svg>
