<svg id="8f44b63d-aee9-4e56-a1a3-1591ab5db9ed" data-name="Layer 1" xmlns="http://www.w3.org/2000/svg" viewBox="0 0 55.57 55.58">
  <defs>
    <style>
      .e303fa8d-19ae-4e1b-bcb2-a6d537928f81 {
        fill: #ccc;
        blend-mode: multiply;
      }
    </style>
  </defs>
  <title>linkedin</title>
  <path id="0d0a6709-b03e-460e-83d9-c7870a9efb20" data-name="LinkedIn (alt)" class="e303fa8d-19ae-4e1b-bcb2-a6d537928f81" d="M51.47,0H4.11A4,4,0,0,0,0,4V51.59a4,4,0,0,0,4.11,4H51.47a4,4,0,0,0,4.1-4V4A4,4,0,0,0,51.47,0ZM16.85,46.52H8.45V21.43h8.4ZM12.65,18h-.06A4.34,4.34,0,0,1,8,13.66C8,11.2,9.83,9.33,12.7,9.33a4.35,4.35,0,0,1,4.69,4.33C17.4,16.08,15.58,18,12.65,18ZM47.12,46.52H38.72V33.1c0-3.37-1.22-5.68-4.25-5.68a4.59,4.59,0,0,0-4.31,3.05,5.61,5.61,0,0,0-.28,2v14H21.49s.11-22.74,0-25.09h8.39V25a8.34,8.34,0,0,1,7.56-4.15c5.53,0,9.67,3.58,9.67,11.29V46.52ZM29.83,25.07l.05-.08v.08Z"/>
</svg>
