<svg id="cc0714c6-2008-4da6-9326-503c72e43c89" data-name="Layer 1" xmlns="http://www.w3.org/2000/svg" viewBox="0 0 25.41 30">
  <defs>
    <style>
      .\30 f9d0116-26b7-439b-8b7b-855f15730004 {
        fill: #ccc;
      }
    </style>
  </defs>
  <title>lock</title>
  <g>
    <path class="0f9d0116-26b7-439b-8b7b-855f15730004" d="M22.17,12.26V7.66C22.17,3.44,17.93,0,12.71,0S3.24,3.44,3.24,7.66v4.6H0V30H25.41V12.26ZM6.48,7.66c0-2.78,2.79-5,6.23-5s6.23,2.26,6.23,5v4.6H6.48Zm15.7,19.72H3.24V14.88H22.17v12.5Z"/>
    <path class="0f9d0116-26b7-439b-8b7b-855f15730004" d="M12.71,17.81a2.08,2.08,0,0,0-2.19,2,1.88,1.88,0,0,0,.73,1.46v3.09h2.91V21.24a1.88,1.88,0,0,0,.73-1.46A2.08,2.08,0,0,0,12.71,17.81Z"/>
  </g>
</svg>
