<svg width="39" height="41" viewBox="0 0 39 41" fill="none" xmlns="http://www.w3.org/2000/svg">
<path fill-rule="evenodd" clip-rule="evenodd" d="M3.41251 16.7749C3.41251 22.1528 7.55947 26.5124 12.675 26.5124C17.7905 26.5124 21.9375 22.1528 21.9375 16.7749C21.9375 11.397 17.7905 7.03738 12.675 7.03738C7.55947 7.03738 3.41251 11.397 3.41251 16.7749ZM19.6625 16.7749C19.6625 20.8319 16.5341 24.1207 12.675 24.1207C8.81592 24.1207 5.68751 20.8319 5.68751 16.7749C5.68751 12.7179 8.81592 9.42905 12.675 9.42905C16.5341 9.42905 19.6625 12.7179 19.6625 16.7749Z" fill="black"/>
<path d="M25.8375 37.6166H23.5625C23.5625 31.4839 18.8335 26.5124 13 26.5124C7.1665 26.5124 2.43751 31.4839 2.43751 37.6166H0.162506C0.162506 30.163 5.91005 24.1207 13 24.1207C20.09 24.1207 25.8375 30.163 25.8375 37.6166Z" fill="black"/>
<path d="M25.3491 23.4869L23.7706 21.7646C24.8771 20.6438 25.5125 19.1057 25.5125 17.4582C25.5125 15.8087 24.8755 14.2688 23.7666 13.1478L25.3435 11.4238C26.894 12.9912 27.7875 15.1513 27.7875 17.4582C27.7875 19.7622 26.8962 21.9199 25.3491 23.4869Z" fill="black"/>
<path d="M29.4493 27.7283L27.8806 25.9962C30.0901 23.7844 31.3625 20.7295 31.3625 17.4582C31.3625 14.2014 30.1015 11.159 27.9093 8.94903L29.4839 7.22278C32.119 9.87926 33.6375 13.5429 33.6375 17.4582C33.6375 21.391 32.1053 25.0696 29.4493 27.7283Z" fill="black"/>
<path d="M33.1975 31.5229L31.609 29.8108C34.7564 26.5833 36.5625 22.1732 36.5625 17.4582C36.5625 12.7435 34.7566 8.33355 31.6095 5.10613L33.198 3.3941C36.7797 7.06713 38.8375 12.0922 38.8375 17.4582C38.8375 22.8245 36.7795 27.8498 33.1975 31.5229Z" fill="black"/>
</svg>
